<?xml version="1.0" standalone="no"?>
<!DOCTYPE svg PUBLIC "-//W3C//DTD SVG 20010904//EN"
 "http://www.w3.org/TR/2001/REC-SVG-20010904/DTD/svg10.dtd">
<svg version="1.0" xmlns="http://www.w3.org/2000/svg"
 width="400.000000pt" height="400.000000pt" viewBox="0 0 400.000000 400.000000"
 preserveAspectRatio="xMidYMid meet">
<metadata>
Created by potrace 1.16, written by Peter Selinger 2001-2019
</metadata>
<g transform="translate(0.000000,400.000000) scale(0.100000,-0.100000)"
fill="#000000" stroke="none">
<path d="M1460 3395 c-256 -50 -599 -118 -762 -150 l-298 -59 0 -1187 0 -1188
53 -10 c28 -6 124 -24 212 -41 88 -16 180 -34 205 -40 25 -5 198 -39 385 -75
187 -36 418 -82 514 -101 96 -18 178 -34 183 -34 4 0 8 670 8 1490 0 1413 -1
1490 -17 1489 -10 -1 -227 -43 -483 -94z"/>
<path d="M2045 2010 c0 -751 1 -1058 2 -682 2 375 2 989 0 1365 -1 375 -2 68
-2 -683z"/>
<path d="M3555 2000 c0 -624 1 -880 2 -568 2 313 2 823 0 1135 -1 313 -2 57
-2 -567z"/>
<path d="M3585 1995 c0 -621 1 -874 2 -562 2 313 2 821 0 1130 -1 309 -2 54
-2 -568z"/>
<path d="M2068 1380 c-2 -413 0 -750 5 -750 4 0 7 338 7 750 0 413 -2 750 -5
750 -3 0 -6 -338 -7 -750z"/>
</g>
</svg>
