<svg id="svg" version="1.1" xmlns="http://www.w3.org/2000/svg" xmlns:xlink="http://www.w3.org/1999/xlink" width="35" height="35" viewBox="0, 0, 400,400"><g id="svgg"><path id="path0" d="M238.000 0.554 C 238.000 1.147,236.168 2.149,234.200 2.634 C 233.540 2.796,232.765 3.260,232.477 3.665 C 232.190 4.069,231.740 4.399,231.477 4.397 C 229.800 4.387,225.444 11.155,224.436 15.337 C 224.180 16.403,223.727 17.663,223.430 18.137 C 223.133 18.612,222.764 19.720,222.611 20.600 C 222.457 21.480,222.002 22.830,221.598 23.600 C 221.195 24.370,220.658 25.900,220.406 27.000 C 220.154 28.100,219.717 29.360,219.434 29.800 C 219.152 30.240,218.789 31.312,218.627 32.181 C 218.465 33.051,218.013 34.401,217.621 35.181 C 217.229 35.962,216.778 37.320,216.620 38.200 C 216.461 39.080,216.002 40.430,215.598 41.200 C 215.195 41.970,214.657 43.498,214.403 44.595 C 214.149 45.692,213.761 46.807,213.540 47.072 C 213.320 47.338,212.884 48.650,212.572 49.988 C 212.260 51.327,211.753 52.822,211.447 53.311 C 211.141 53.800,210.764 54.920,210.611 55.800 C 210.457 56.680,210.000 58.030,209.594 58.800 C 209.187 59.570,208.640 61.190,208.377 62.400 C 208.114 63.610,207.671 64.870,207.393 65.200 C 207.115 65.530,206.767 66.536,206.619 67.436 C 206.472 68.336,206.072 69.596,205.731 70.236 C 205.389 70.876,204.854 72.473,204.540 73.785 C 204.226 75.097,203.736 76.447,203.450 76.785 C 203.164 77.123,202.701 78.480,202.422 79.800 C 202.143 81.120,201.683 82.470,201.401 82.800 C 201.118 83.130,200.763 84.154,200.612 85.077 C 200.461 85.999,200.000 87.416,199.587 88.225 C 199.174 89.035,198.636 90.666,198.390 91.849 C 198.144 93.032,197.719 94.225,197.446 94.500 C 197.172 94.775,196.734 96.066,196.474 97.369 C 196.213 98.672,195.749 100.022,195.443 100.369 C 195.137 100.716,194.760 101.810,194.606 102.800 C 194.451 103.790,194.008 105.150,193.621 105.823 C 193.234 106.495,192.790 107.755,192.633 108.623 C 192.476 109.490,192.020 110.920,191.619 111.800 C 191.218 112.680,190.678 114.300,190.419 115.400 C 190.160 116.500,189.717 117.760,189.434 118.200 C 189.152 118.640,188.790 119.720,188.631 120.600 C 188.472 121.480,188.021 122.750,187.630 123.423 C 187.238 124.095,186.790 125.355,186.633 126.223 C 186.476 127.090,186.020 128.520,185.619 129.400 C 185.218 130.280,184.678 131.900,184.419 133.000 C 184.160 134.100,183.717 135.360,183.434 135.800 C 183.152 136.240,182.790 137.320,182.631 138.200 C 182.472 139.080,182.014 140.362,181.615 141.049 C 181.215 141.735,180.759 143.085,180.601 144.049 C 180.444 145.012,179.988 146.430,179.590 147.200 C 179.191 147.970,178.657 149.498,178.403 150.595 C 178.149 151.692,177.761 152.807,177.540 153.072 C 177.320 153.338,176.884 154.650,176.572 155.988 C 176.260 157.327,175.756 158.822,175.452 159.311 C 175.148 159.800,174.686 161.100,174.424 162.200 C 174.162 163.300,173.712 164.564,173.425 165.009 C 173.137 165.454,172.777 166.550,172.626 167.445 C 172.475 168.340,172.072 169.596,171.731 170.236 C 171.389 170.876,170.855 172.468,170.542 173.774 C 170.230 175.080,169.793 176.368,169.570 176.636 C 169.348 176.904,168.881 178.265,168.534 179.662 C 168.186 181.058,167.677 182.470,167.401 182.800 C 167.126 183.130,166.777 184.120,166.625 185.000 C 166.473 185.880,166.018 187.320,165.614 188.200 C 165.211 189.080,164.663 190.752,164.397 191.915 C 164.131 193.078,163.696 194.248,163.431 194.515 C 163.165 194.782,162.734 196.066,162.474 197.369 C 162.213 198.672,161.749 200.022,161.443 200.369 C 161.137 200.716,160.760 201.810,160.606 202.800 C 160.451 203.790,160.001 205.162,159.606 205.849 C 159.211 206.535,158.759 207.885,158.601 208.849 C 158.444 209.812,157.988 211.230,157.590 212.000 C 157.191 212.770,156.658 214.300,156.406 215.400 C 156.154 216.500,155.717 217.760,155.434 218.200 C 155.152 218.640,154.790 219.720,154.631 220.600 C 154.472 221.480,154.021 222.750,153.630 223.423 C 153.238 224.095,152.790 225.355,152.633 226.223 C 152.476 227.090,152.020 228.520,151.619 229.400 C 151.218 230.280,150.678 231.900,150.419 233.000 C 150.160 234.100,149.717 235.360,149.434 235.800 C 149.152 236.240,148.790 237.320,148.631 238.200 C 148.472 239.080,148.014 240.362,147.615 241.049 C 147.215 241.735,146.759 243.085,146.601 244.049 C 146.444 245.012,145.988 246.430,145.590 247.200 C 145.191 247.970,144.657 249.498,144.403 250.595 C 144.149 251.692,143.761 252.807,143.540 253.072 C 143.320 253.338,142.884 254.650,142.572 255.988 C 142.260 257.327,141.753 258.822,141.447 259.311 C 141.141 259.800,140.764 260.920,140.611 261.800 C 140.457 262.680,140.002 264.030,139.598 264.800 C 139.195 265.570,138.657 267.098,138.403 268.195 C 138.149 269.292,137.761 270.407,137.540 270.672 C 137.320 270.938,136.877 272.278,136.557 273.652 C 136.237 275.025,135.787 276.375,135.557 276.652 C 135.327 276.928,134.876 278.283,134.555 279.663 C 134.233 281.042,133.736 282.447,133.450 282.785 C 133.164 283.123,132.701 284.480,132.422 285.800 C 132.143 287.120,131.683 288.470,131.401 288.800 C 131.118 289.130,130.763 290.154,130.612 291.077 C 130.461 291.999,130.000 293.416,129.587 294.225 C 129.174 295.035,128.636 296.666,128.390 297.849 C 128.144 299.032,127.708 300.235,127.420 300.523 C 127.132 300.811,126.767 301.846,126.610 302.823 C 126.453 303.800,126.001 305.162,125.606 305.849 C 125.211 306.535,124.761 307.885,124.606 308.849 C 124.451 309.812,124.008 311.150,123.621 311.823 C 123.234 312.495,122.790 313.755,122.633 314.623 C 122.476 315.490,122.020 316.920,121.619 317.800 C 121.218 318.680,120.683 320.272,120.430 321.337 C 120.177 322.403,119.720 323.663,119.414 324.137 C 119.109 324.612,118.736 325.720,118.585 326.600 C 118.435 327.480,117.998 328.750,117.615 329.423 C 117.232 330.095,116.790 331.355,116.633 332.223 C 116.476 333.090,116.020 334.520,115.619 335.400 C 115.218 336.280,114.678 337.900,114.419 339.000 C 114.160 340.100,113.717 341.360,113.434 341.800 C 113.152 342.240,112.790 343.320,112.631 344.200 C 112.472 345.080,112.014 346.362,111.615 347.049 C 111.215 347.735,110.761 349.085,110.606 350.049 C 110.451 351.012,110.008 352.350,109.621 353.023 C 109.234 353.695,108.790 354.955,108.633 355.823 C 108.477 356.690,108.028 358.030,107.636 358.800 C 107.243 359.570,106.789 360.920,106.627 361.800 C 106.465 362.680,106.000 364.030,105.594 364.800 C 105.187 365.570,104.640 367.190,104.377 368.400 C 104.114 369.610,103.674 370.870,103.400 371.200 C 103.126 371.530,102.773 372.520,102.616 373.400 C 102.459 374.280,101.972 375.837,101.534 376.859 C 100.043 380.335,101.296 388.020,103.907 391.419 C 106.190 394.390,110.110 397.600,111.455 397.600 C 112.406 397.600,114.800 398.941,114.800 399.474 C 114.800 399.870,115.692 400.000,118.400 400.000 C 121.022 400.000,122.000 399.864,122.000 399.498 C 122.000 399.017,122.471 398.764,125.600 397.565 C 129.937 395.904,135.600 389.191,135.600 385.710 C 135.600 385.302,135.943 384.296,136.363 383.473 C 136.783 382.650,137.343 381.036,137.608 379.888 C 137.873 378.740,138.312 377.440,138.584 377.000 C 138.856 376.560,139.303 375.260,139.576 374.112 C 139.850 372.964,140.417 371.350,140.837 370.527 C 141.257 369.704,141.600 368.657,141.600 368.200 C 141.600 367.743,141.948 366.686,142.374 365.851 C 142.800 365.016,143.347 363.405,143.590 362.271 C 143.833 361.138,144.268 359.848,144.555 359.405 C 144.843 358.962,145.303 357.660,145.576 356.512 C 145.850 355.364,146.417 353.750,146.837 352.927 C 147.257 352.104,147.600 351.103,147.600 350.703 C 147.600 350.303,148.050 348.907,148.600 347.600 C 149.150 346.293,149.600 344.897,149.600 344.497 C 149.600 344.097,149.943 343.096,150.363 342.273 C 150.783 341.450,151.346 339.836,151.615 338.688 C 151.884 337.540,152.334 336.150,152.615 335.600 C 153.182 334.493,154.497 330.590,155.445 327.200 C 155.784 325.990,156.293 324.638,156.577 324.196 C 156.860 323.754,157.304 322.406,157.562 321.201 C 157.821 319.996,158.268 318.648,158.555 318.205 C 158.843 317.762,159.313 316.410,159.600 315.200 C 159.887 313.990,160.357 312.638,160.645 312.195 C 160.932 311.752,161.376 310.402,161.631 309.195 C 161.885 307.988,162.276 306.773,162.499 306.496 C 162.722 306.219,163.226 304.869,163.619 303.496 C 164.317 301.058,164.727 299.817,166.656 294.300 C 167.175 292.815,168.025 290.385,168.544 288.900 C 170.454 283.439,170.881 282.150,171.561 279.800 C 171.942 278.480,172.452 277.040,172.693 276.600 C 173.142 275.780,174.281 272.457,175.571 268.200 C 175.971 266.880,176.591 265.131,176.949 264.313 C 177.307 263.495,177.600 262.498,177.600 262.097 C 177.600 261.697,177.943 260.696,178.363 259.873 C 178.783 259.050,179.343 257.436,179.608 256.288 C 179.873 255.140,180.312 253.840,180.584 253.400 C 180.856 252.960,181.303 251.660,181.576 250.512 C 181.850 249.364,182.417 247.750,182.837 246.927 C 183.257 246.104,183.600 245.103,183.600 244.703 C 183.600 244.303,184.050 242.907,184.600 241.600 C 185.150 240.293,185.600 238.897,185.600 238.497 C 185.600 238.097,185.943 237.096,186.363 236.273 C 186.783 235.450,187.346 233.836,187.615 232.688 C 187.884 231.540,188.341 230.150,188.631 229.600 C 188.921 229.050,189.430 227.700,189.762 226.600 C 191.123 222.090,192.268 219.161,192.928 218.500 C 193.582 217.846,196.152 217.787,232.172 217.600 C 266.986 217.419,270.788 217.337,271.458 216.751 C 271.866 216.393,272.853 215.892,273.652 215.635 C 274.922 215.228,278.494 212.109,280.420 209.727 C 283.808 205.535,283.824 194.386,280.448 190.314 C 278.378 187.819,275.046 184.907,273.726 184.441 C 272.887 184.144,271.866 183.609,271.458 183.251 C 270.789 182.663,267.591 182.588,238.678 182.482 C 216.535 182.400,206.478 182.231,206.119 181.933 C 205.367 181.309,205.482 179.200,206.363 177.473 C 206.783 176.650,207.343 175.036,207.608 173.888 C 207.873 172.740,208.312 171.440,208.584 171.000 C 208.856 170.560,209.303 169.260,209.576 168.112 C 209.850 166.964,210.417 165.350,210.837 164.527 C 211.257 163.704,211.600 162.657,211.600 162.200 C 211.600 161.743,211.948 160.686,212.374 159.851 C 212.800 159.016,213.347 157.405,213.590 156.271 C 213.833 155.138,214.268 153.848,214.555 153.405 C 214.843 152.962,215.303 151.660,215.576 150.512 C 215.850 149.364,216.417 147.750,216.837 146.927 C 217.257 146.104,217.600 145.103,217.600 144.703 C 217.600 144.303,218.050 142.907,218.600 141.600 C 219.150 140.293,219.600 138.897,219.600 138.497 C 219.600 138.097,219.943 137.096,220.363 136.273 C 220.783 135.450,221.346 133.836,221.615 132.688 C 221.884 131.540,222.334 130.150,222.615 129.600 C 223.178 128.501,224.442 124.779,225.570 120.904 C 225.969 119.531,226.476 118.181,226.696 117.904 C 226.915 117.627,227.319 116.410,227.593 115.200 C 227.866 113.990,228.312 112.640,228.584 112.200 C 228.856 111.760,229.303 110.460,229.576 109.312 C 229.850 108.164,230.417 106.550,230.837 105.727 C 231.257 104.904,231.600 103.912,231.600 103.523 C 231.600 103.134,232.026 101.687,232.547 100.308 C 233.742 97.146,234.664 94.459,235.605 91.400 C 236.011 90.080,236.909 87.470,237.600 85.600 C 238.291 83.730,239.180 81.077,239.576 79.704 C 239.972 78.331,240.476 76.981,240.696 76.704 C 240.915 76.427,241.322 75.210,241.599 74.000 C 241.877 72.790,242.334 71.350,242.615 70.800 C 243.178 69.701,244.442 65.979,245.570 62.104 C 245.969 60.731,246.478 59.381,246.701 59.104 C 246.924 58.827,247.315 57.612,247.569 56.405 C 247.824 55.198,248.268 53.848,248.555 53.405 C 248.843 52.962,249.306 51.610,249.584 50.400 C 249.862 49.190,250.312 47.840,250.584 47.400 C 250.856 46.960,251.303 45.660,251.576 44.512 C 251.850 43.364,252.417 41.750,252.837 40.927 C 253.257 40.104,253.600 39.057,253.600 38.600 C 253.600 38.143,253.943 37.096,254.363 36.273 C 254.783 35.450,255.346 33.836,255.615 32.688 C 255.884 31.540,256.341 30.150,256.632 29.600 C 256.923 29.050,257.456 27.520,257.818 26.200 C 258.180 24.880,258.671 23.563,258.909 23.273 C 260.540 21.291,258.799 11.378,256.328 8.574 C 255.927 8.120,255.600 7.604,255.600 7.428 C 255.600 6.964,252.773 4.445,251.962 4.188 C 251.584 4.068,251.173 3.706,251.050 3.385 C 250.926 3.063,250.538 2.800,250.187 2.800 C 249.037 2.800,245.600 1.115,245.600 0.551 C 245.600 0.122,244.760 0.000,241.800 0.000 C 238.828 0.000,238.000 0.121,238.000 0.554 " stroke="none" fill="#fc2525" fill-rule="evenodd"></path><path id="path1" d="M0.000 200.000 L 0.000 400.000 55.200 400.000 C 104.000 400.000,110.400 399.930,110.400 399.400 C 110.400 399.062,110.042 398.800,109.582 398.800 C 109.132 398.800,108.314 398.350,107.764 397.800 C 107.214 397.250,106.661 396.800,106.535 396.800 C 106.165 396.800,103.200 393.727,103.200 393.343 C 103.200 393.150,102.863 392.782,102.450 392.524 C 102.038 392.267,101.580 391.575,101.433 390.988 C 101.285 390.400,100.794 389.419,100.342 388.807 C 98.763 386.672,98.928 375.048,100.562 373.242 C 100.892 372.877,101.278 371.774,101.421 370.790 C 101.563 369.805,102.007 368.533,102.406 367.962 C 102.806 367.391,103.254 366.041,103.402 364.962 C 103.550 363.883,103.984 362.550,104.366 362.000 C 104.748 361.450,105.272 359.934,105.531 358.631 C 105.789 357.328,106.255 355.978,106.565 355.631 C 106.875 355.284,107.256 354.143,107.411 353.095 C 107.565 352.048,108.009 350.788,108.395 350.295 C 108.782 349.803,109.228 348.458,109.386 347.308 C 109.544 346.157,109.994 344.807,110.385 344.308 C 110.777 343.808,111.228 342.590,111.387 341.600 C 111.546 340.610,111.999 339.238,112.394 338.551 C 112.789 337.865,113.239 336.515,113.394 335.551 C 113.549 334.588,114.006 333.226,114.410 332.525 C 114.813 331.824,115.267 330.427,115.418 329.420 C 115.569 328.414,116.009 327.188,116.395 326.695 C 116.782 326.203,117.228 324.858,117.386 323.708 C 117.544 322.557,118.000 321.200,118.399 320.692 C 118.799 320.184,119.253 318.918,119.409 317.879 C 119.565 316.841,120.015 315.581,120.409 315.079 C 120.803 314.578,121.249 313.275,121.399 312.184 C 121.549 311.093,122.000 309.733,122.402 309.162 C 122.804 308.591,123.254 307.241,123.402 306.162 C 123.550 305.083,124.002 303.731,124.405 303.158 C 124.808 302.585,125.331 301.070,125.568 299.791 C 125.804 298.512,126.260 297.176,126.580 296.822 C 126.900 296.469,127.278 295.374,127.421 294.390 C 127.563 293.405,128.007 292.133,128.406 291.562 C 128.806 290.991,129.254 289.641,129.402 288.562 C 129.550 287.483,129.984 286.150,130.366 285.600 C 130.748 285.050,131.272 283.534,131.531 282.231 C 131.789 280.928,132.255 279.578,132.565 279.231 C 132.876 278.884,133.325 277.535,133.564 276.233 C 133.802 274.931,134.260 273.576,134.580 273.222 C 134.900 272.869,135.278 271.774,135.421 270.790 C 135.563 269.805,136.007 268.533,136.406 267.962 C 136.806 267.391,137.254 266.041,137.402 264.962 C 137.550 263.883,137.984 262.550,138.366 262.000 C 138.748 261.450,139.272 259.934,139.531 258.631 C 139.789 257.328,140.244 255.978,140.542 255.631 C 140.840 255.284,141.290 253.934,141.542 252.631 C 141.794 251.328,142.255 249.978,142.565 249.631 C 142.875 249.284,143.256 248.143,143.411 247.095 C 143.565 246.048,144.009 244.788,144.395 244.295 C 144.782 243.803,145.228 242.458,145.386 241.308 C 145.544 240.157,145.994 238.807,146.385 238.308 C 146.777 237.808,147.228 236.590,147.387 235.600 C 147.546 234.610,147.999 233.238,148.394 232.551 C 148.789 231.865,149.239 230.515,149.394 229.551 C 149.549 228.588,150.006 227.226,150.410 226.525 C 150.813 225.824,151.267 224.427,151.418 223.420 C 151.569 222.414,152.009 221.188,152.395 220.695 C 152.782 220.203,153.228 218.858,153.386 217.708 C 153.544 216.557,154.011 215.186,154.423 214.661 C 154.836 214.137,155.287 212.918,155.426 211.954 C 155.566 210.989,156.007 209.733,156.406 209.162 C 156.806 208.591,157.254 207.241,157.402 206.162 C 157.550 205.083,158.000 203.733,158.402 203.162 C 158.804 202.591,159.254 201.241,159.402 200.162 C 159.550 199.083,160.011 197.718,160.427 197.129 C 160.842 196.540,161.293 195.280,161.431 194.329 C 161.568 193.378,162.007 192.133,162.406 191.562 C 162.806 190.991,163.254 189.641,163.402 188.562 C 163.550 187.483,164.000 186.133,164.402 185.562 C 164.804 184.991,165.254 183.641,165.402 182.562 C 165.550 181.483,166.002 180.131,166.405 179.558 C 166.808 178.985,167.331 177.470,167.568 176.191 C 167.804 174.912,168.252 173.581,168.564 173.233 C 168.875 172.885,169.325 171.535,169.564 170.233 C 169.802 168.931,170.260 167.576,170.580 167.222 C 170.900 166.869,171.278 165.774,171.421 164.790 C 171.563 163.805,172.007 162.533,172.406 161.962 C 172.806 161.391,173.254 160.041,173.402 158.962 C 173.550 157.883,173.984 156.550,174.366 156.000 C 174.748 155.450,175.272 153.934,175.531 152.631 C 175.789 151.328,176.255 149.978,176.565 149.631 C 176.875 149.284,177.256 148.143,177.411 147.095 C 177.565 146.048,178.009 144.788,178.395 144.295 C 178.782 143.803,179.228 142.458,179.386 141.308 C 179.544 140.157,179.994 138.807,180.385 138.308 C 180.777 137.808,181.228 136.590,181.387 135.600 C 181.546 134.610,181.999 133.238,182.394 132.551 C 182.789 131.865,183.239 130.515,183.394 129.551 C 183.549 128.588,184.006 127.226,184.410 126.525 C 184.813 125.824,185.267 124.427,185.418 123.420 C 185.569 122.414,186.009 121.188,186.395 120.695 C 186.782 120.203,187.228 118.858,187.386 117.708 C 187.544 116.557,188.000 115.200,188.399 114.692 C 188.799 114.184,189.253 112.918,189.409 111.879 C 189.565 110.841,190.015 109.581,190.409 109.079 C 190.803 108.578,191.249 107.275,191.399 106.184 C 191.549 105.093,192.000 103.733,192.402 103.162 C 192.804 102.591,193.254 101.241,193.402 100.162 C 193.550 99.083,194.011 97.718,194.427 97.129 C 194.842 96.540,195.293 95.280,195.431 94.329 C 195.568 93.378,196.007 92.133,196.406 91.562 C 196.806 90.991,197.254 89.641,197.402 88.562 C 197.550 87.483,198.000 86.133,198.402 85.562 C 198.804 84.991,199.254 83.641,199.402 82.562 C 199.550 81.483,199.984 80.150,200.366 79.600 C 200.748 79.050,201.272 77.534,201.531 76.231 C 201.789 74.928,202.255 73.578,202.565 73.231 C 202.876 72.884,203.325 71.535,203.564 70.233 C 203.802 68.931,204.260 67.576,204.580 67.222 C 204.900 66.869,205.278 65.774,205.421 64.790 C 205.563 63.805,206.007 62.533,206.406 61.962 C 206.806 61.391,207.254 60.041,207.402 58.962 C 207.550 57.883,207.984 56.550,208.366 56.000 C 208.748 55.450,209.272 53.934,209.531 52.631 C 209.789 51.328,210.244 49.978,210.542 49.631 C 210.840 49.284,211.290 47.934,211.542 46.631 C 211.794 45.328,212.255 43.978,212.565 43.631 C 212.875 43.284,213.256 42.143,213.411 41.095 C 213.565 40.048,214.006 38.788,214.390 38.295 C 214.774 37.803,215.208 36.584,215.355 35.587 C 215.502 34.590,215.957 33.225,216.365 32.554 C 216.773 31.882,217.235 30.538,217.392 29.567 C 217.548 28.595,218.006 27.226,218.410 26.525 C 218.813 25.824,219.267 24.427,219.418 23.420 C 219.569 22.414,220.009 21.188,220.395 20.695 C 220.782 20.203,221.228 18.858,221.386 17.708 C 221.544 16.557,222.011 15.186,222.423 14.661 C 222.836 14.137,223.295 12.947,223.444 12.016 C 223.593 11.086,224.026 10.027,224.408 9.662 C 224.789 9.298,225.236 8.550,225.402 8.000 C 225.824 6.598,230.578 2.135,232.229 1.590 C 237.148 -0.033,239.541 0.000,116.800 0.000 L 0.000 0.000 0.000 200.000 M250.000 0.610 C 250.000 0.972,250.503 1.321,251.234 1.467 C 251.913 1.603,252.568 1.972,252.689 2.288 C 252.810 2.603,253.320 3.017,253.821 3.208 C 254.803 3.581,258.800 8.147,258.800 8.895 C 258.800 9.144,259.165 9.737,259.612 10.213 C 261.410 12.127,261.568 24.846,259.818 26.780 C 259.477 27.157,259.004 28.512,258.768 29.791 C 258.531 31.070,258.010 32.585,257.610 33.158 C 257.209 33.731,256.776 35.058,256.647 36.107 C 256.519 37.156,256.066 38.506,255.643 39.107 C 255.219 39.708,254.756 41.042,254.616 42.072 C 254.475 43.101,254.036 44.361,253.641 44.872 C 253.245 45.382,252.803 46.690,252.658 47.777 C 252.513 48.865,252.058 50.125,251.647 50.577 C 251.228 51.038,250.809 52.253,250.694 53.342 C 250.581 54.410,250.109 55.797,249.644 56.425 C 249.180 57.054,248.799 57.980,248.798 58.484 C 248.794 60.040,247.980 62.433,247.375 62.665 C 247.045 62.792,246.799 63.420,246.798 64.143 C 246.795 65.895,246.072 68.317,245.441 68.689 C 245.151 68.860,244.818 69.874,244.701 70.942 C 244.584 72.010,244.109 73.397,243.644 74.025 C 243.180 74.654,242.800 75.721,242.800 76.397 C 242.800 77.540,242.140 79.390,241.228 80.800 C 241.015 81.130,240.728 82.268,240.591 83.329 C 240.454 84.390,240.024 85.576,239.634 85.966 C 239.245 86.355,238.806 87.557,238.660 88.637 C 238.513 89.717,238.065 91.050,237.663 91.600 C 237.260 92.150,236.810 93.500,236.663 94.600 C 236.515 95.700,236.065 97.050,235.663 97.600 C 235.260 98.150,234.810 99.500,234.663 100.600 C 234.515 101.700,234.065 103.050,233.663 103.600 C 233.260 104.150,232.810 105.500,232.663 106.600 C 232.515 107.700,232.065 109.050,231.663 109.600 C 231.260 110.150,230.810 111.490,230.663 112.577 C 230.515 113.665,230.059 114.925,229.650 115.377 C 229.240 115.830,228.790 117.100,228.650 118.200 C 228.509 119.300,228.065 120.650,227.663 121.200 C 227.260 121.750,226.810 123.090,226.663 124.177 C 226.515 125.265,226.059 126.525,225.649 126.977 C 225.215 127.457,224.804 128.701,224.664 129.962 C 224.521 131.242,224.113 132.466,223.664 132.962 C 223.214 133.458,222.807 134.682,222.664 135.962 C 222.521 137.242,222.113 138.466,221.664 138.962 C 221.247 139.423,220.790 140.700,220.650 141.800 C 220.509 142.900,220.065 144.250,219.663 144.800 C 219.260 145.350,218.810 146.690,218.663 147.777 C 218.515 148.865,218.058 150.125,217.647 150.577 C 217.228 151.038,216.809 152.253,216.694 153.342 C 216.581 154.410,216.138 155.760,215.710 156.342 C 215.282 156.924,214.810 158.300,214.663 159.400 C 214.515 160.500,214.035 161.888,213.597 162.484 C 213.159 163.080,212.799 163.980,212.798 164.484 C 212.794 165.941,212.017 168.349,211.441 168.689 C 211.151 168.860,210.818 169.874,210.701 170.942 C 210.584 172.010,210.109 173.397,209.644 174.025 C 209.180 174.654,208.787 175.670,208.772 176.284 C 208.756 176.898,208.603 177.760,208.431 178.200 C 207.622 180.273,206.647 180.209,237.083 180.090 C 260.545 179.998,265.678 180.076,267.549 180.553 C 268.787 180.868,270.649 181.253,271.687 181.407 C 272.725 181.561,273.791 181.948,274.055 182.267 C 274.320 182.585,275.129 183.094,275.854 183.397 C 277.585 184.120,282.327 188.954,282.651 190.326 C 282.791 190.917,283.286 191.820,283.752 192.332 C 285.093 193.806,285.050 206.257,283.700 207.694 C 283.205 208.220,282.800 208.926,282.800 209.262 C 282.800 210.432,276.745 216.800,275.633 216.800 C 275.313 216.800,274.646 217.181,274.151 217.646 C 273.578 218.184,272.549 218.557,271.325 218.668 C 270.266 218.765,268.490 219.109,267.378 219.434 C 265.649 219.940,260.261 220.009,230.174 219.913 L 194.992 219.800 193.957 221.000 C 193.284 221.779,192.829 222.901,192.658 224.200 C 192.512 225.300,192.065 226.650,191.663 227.200 C 191.260 227.750,190.810 229.090,190.663 230.177 C 190.515 231.265,190.059 232.525,189.649 232.977 C 189.215 233.457,188.804 234.701,188.664 235.962 C 188.521 237.242,188.113 238.466,187.664 238.962 C 187.214 239.458,186.807 240.682,186.664 241.962 C 186.521 243.242,186.113 244.466,185.664 244.962 C 185.247 245.423,184.790 246.690,184.650 247.777 C 184.509 248.865,184.059 250.125,183.649 250.577 C 183.215 251.057,182.804 252.301,182.664 253.562 C 182.521 254.848,182.114 256.064,181.661 256.562 C 181.228 257.039,180.811 258.237,180.694 259.342 C 180.581 260.410,180.109 261.797,179.644 262.425 C 179.180 263.054,178.799 263.980,178.798 264.484 C 178.794 266.040,177.980 268.433,177.375 268.665 C 177.045 268.792,176.799 269.420,176.798 270.143 C 176.794 271.995,176.034 274.412,175.375 274.665 C 175.030 274.797,174.800 275.433,174.800 276.256 C 174.800 277.522,174.170 279.343,173.228 280.800 C 173.015 281.130,172.728 282.268,172.591 283.329 C 172.450 284.424,172.009 285.591,171.571 286.029 C 171.147 286.453,170.799 287.295,170.798 287.900 C 170.795 289.510,170.048 291.930,169.445 292.289 C 169.156 292.460,168.802 293.500,168.657 294.600 C 168.512 295.700,168.065 297.050,167.663 297.600 C 167.260 298.150,166.810 299.500,166.663 300.600 C 166.515 301.700,166.065 303.050,165.663 303.600 C 165.260 304.150,164.810 305.500,164.663 306.600 C 164.515 307.700,164.065 309.050,163.663 309.600 C 163.260 310.150,162.810 311.500,162.663 312.600 C 162.515 313.700,162.064 315.050,161.661 315.600 C 161.258 316.150,160.823 317.393,160.694 318.361 C 160.565 319.330,160.116 320.590,159.695 321.161 C 159.275 321.733,158.810 323.100,158.663 324.200 C 158.515 325.300,158.065 326.650,157.663 327.200 C 157.260 327.750,156.810 329.090,156.663 330.177 C 156.515 331.265,156.059 332.525,155.649 332.977 C 155.215 333.457,154.804 334.701,154.664 335.962 C 154.521 337.242,154.113 338.466,153.664 338.962 C 153.214 339.458,152.807 340.682,152.664 341.962 C 152.521 343.242,152.113 344.466,151.664 344.962 C 151.247 345.423,150.790 346.700,150.650 347.800 C 150.509 348.900,150.065 350.250,149.663 350.800 C 149.260 351.350,148.810 352.690,148.663 353.777 C 148.515 354.865,148.058 356.125,147.647 356.577 C 147.228 357.038,146.809 358.253,146.694 359.342 C 146.581 360.410,146.138 361.760,145.710 362.342 C 145.282 362.924,144.810 364.300,144.663 365.400 C 144.515 366.500,144.035 367.888,143.597 368.484 C 143.159 369.080,142.799 369.980,142.798 370.484 C 142.794 371.941,142.017 374.349,141.441 374.689 C 141.151 374.860,140.818 375.874,140.701 376.942 C 140.584 378.010,140.137 379.360,139.707 379.942 C 139.277 380.524,138.827 381.874,138.707 382.942 C 138.587 384.010,138.139 385.360,137.710 385.942 C 137.282 386.524,136.818 387.720,136.679 388.600 C 136.528 389.553,136.098 390.422,135.613 390.749 C 135.166 391.051,134.800 391.644,134.800 392.068 C 134.800 392.775,132.520 395.259,129.794 397.522 C 129.183 398.029,128.170 398.546,127.542 398.672 C 126.914 398.797,126.400 399.148,126.400 399.450 C 126.400 399.916,147.394 400.000,263.200 400.000 L 400.000 400.000 400.000 200.000 L 400.000 0.000 325.000 0.000 C 258.054 0.000,250.000 0.066,250.000 0.610 " stroke="none" fill="#fcfbfb" fill-rule="evenodd"></path><path id="path2" d="M234.800 0.539 C 234.800 0.836,234.049 1.417,233.131 1.831 C 228.055 4.120,224.934 8.883,221.618 19.400 C 220.347 23.430,219.569 25.717,218.828 27.600 C 217.894 29.973,216.499 34.110,215.791 36.600 C 215.479 37.700,215.046 38.960,214.828 39.400 C 214.406 40.255,212.869 44.665,211.622 48.600 C 210.292 52.795,209.569 54.945,208.798 57.000 C 208.385 58.100,207.843 59.789,207.594 60.753 C 207.345 61.717,206.978 62.797,206.778 63.153 C 206.425 63.784,203.126 73.399,201.616 78.200 C 200.265 82.493,199.550 84.568,198.787 86.400 C 198.375 87.390,197.915 88.830,197.765 89.600 C 197.615 90.370,197.182 91.720,196.802 92.600 C 196.127 94.166,194.923 97.605,193.794 101.200 C 192.555 105.143,191.493 108.287,190.824 110.000 C 190.043 111.995,188.766 115.738,187.615 119.400 C 186.272 123.673,185.551 125.764,184.787 127.600 C 184.375 128.590,183.918 130.030,183.771 130.800 C 183.624 131.570,183.240 132.715,182.918 133.345 C 182.596 133.975,182.071 135.495,181.751 136.722 C 181.432 137.950,181.013 139.144,180.821 139.377 C 180.629 139.610,180.169 140.968,179.800 142.396 C 179.430 143.824,179.009 145.174,178.864 145.396 C 178.515 145.930,176.546 151.624,175.755 154.389 C 175.411 155.593,174.896 157.033,174.613 157.589 C 174.329 158.145,173.966 159.230,173.806 160.000 C 173.646 160.770,173.274 161.940,172.979 162.600 C 172.452 163.776,167.103 179.468,165.616 184.200 C 164.135 188.909,163.534 190.623,162.772 192.311 C 162.348 193.252,162.000 194.301,162.000 194.642 C 162.000 194.984,161.573 196.374,161.052 197.732 C 160.121 200.154,158.929 203.631,157.805 207.200 C 157.494 208.190,156.596 210.800,155.810 213.000 C 155.024 215.200,154.039 218.080,153.621 219.400 C 152.222 223.820,151.542 225.788,150.787 227.600 C 150.375 228.590,149.918 230.030,149.771 230.800 C 149.624 231.570,149.240 232.715,148.918 233.345 C 148.596 233.975,148.071 235.495,147.751 236.722 C 147.432 237.950,147.013 239.144,146.821 239.377 C 146.629 239.610,146.169 240.968,145.800 242.396 C 145.430 243.824,145.009 245.174,144.864 245.396 C 144.584 245.825,142.901 250.609,141.627 254.600 C 140.218 259.015,139.554 260.986,138.798 263.000 C 138.385 264.100,137.843 265.789,137.594 266.753 C 137.345 267.717,136.973 268.797,136.767 269.153 C 136.419 269.756,133.337 278.765,131.619 284.200 C 130.099 289.010,129.530 290.633,128.772 292.311 C 128.348 293.252,128.000 294.301,128.000 294.642 C 128.000 294.984,127.584 296.374,127.075 297.732 C 125.990 300.625,124.592 304.659,123.794 307.200 C 122.555 311.143,121.493 314.287,120.824 316.000 C 120.043 317.995,118.766 321.738,117.615 325.400 C 116.272 329.673,115.551 331.764,114.787 333.600 C 114.375 334.590,113.918 336.030,113.771 336.800 C 113.624 337.570,113.240 338.715,112.918 339.345 C 112.596 339.975,112.071 341.495,111.751 342.722 C 111.432 343.950,111.013 345.144,110.821 345.377 C 110.629 345.610,110.169 346.968,109.800 348.396 C 109.430 349.824,109.009 351.174,108.864 351.396 C 108.515 351.930,106.546 357.624,105.755 360.389 C 105.411 361.593,104.896 363.033,104.613 363.589 C 104.329 364.145,103.966 365.230,103.806 366.000 C 103.646 366.770,103.277 367.940,102.986 368.600 C 98.059 379.766,98.773 388.228,105.200 394.827 C 106.549 396.212,110.356 398.800,111.045 398.800 C 111.350 398.800,111.600 399.070,111.600 399.400 C 111.600 399.730,111.870 400.000,112.200 400.000 C 113.422 400.000,112.748 398.911,111.212 398.404 C 108.148 397.393,103.772 393.194,102.026 389.589 C 99.217 383.791,99.389 380.441,103.037 369.800 C 104.470 365.620,105.896 361.390,106.206 360.400 C 106.821 358.440,109.459 350.725,114.208 337.000 C 115.883 332.160,117.595 327.120,118.012 325.800 C 118.429 324.480,120.275 318.990,122.115 313.600 C 123.955 308.210,126.668 300.200,128.145 295.800 C 129.621 291.400,130.996 287.440,131.199 287.000 C 131.403 286.560,131.871 285.122,132.241 283.805 C 132.610 282.487,133.064 281.137,133.249 280.805 C 133.526 280.308,137.550 268.449,139.902 261.200 C 140.223 260.210,140.815 258.500,141.217 257.400 C 141.620 256.300,142.236 254.500,142.587 253.400 C 143.537 250.422,146.765 240.928,150.205 231.000 C 151.882 226.160,153.595 221.120,154.013 219.800 C 154.430 218.480,155.867 214.250,157.205 210.400 C 158.543 206.550,159.893 202.590,160.203 201.600 C 161.361 197.909,164.823 187.771,165.189 187.000 C 165.398 186.560,165.868 185.120,166.234 183.800 C 166.599 182.480,167.006 181.220,167.138 181.000 C 167.370 180.612,175.070 158.029,176.207 154.400 C 176.820 152.441,179.453 144.742,184.208 131.000 C 185.883 126.160,187.595 121.120,188.012 119.800 C 188.429 118.480,190.221 113.170,191.994 108.000 C 193.767 102.830,196.479 94.820,198.020 90.200 C 199.562 85.580,200.991 81.440,201.196 81.000 C 201.401 80.560,201.871 79.122,202.241 77.805 C 202.610 76.487,203.064 75.137,203.249 74.805 C 203.534 74.293,208.037 61.006,209.893 55.200 C 210.210 54.210,210.729 52.770,211.047 52.000 C 211.365 51.230,211.881 49.700,212.193 48.600 C 212.505 47.500,213.406 44.800,214.195 42.600 C 214.984 40.400,215.884 37.790,216.195 36.800 C 216.506 35.810,217.771 32.120,219.006 28.600 C 220.242 25.080,221.598 21.120,222.020 19.800 C 224.848 10.960,225.606 9.251,227.804 6.763 C 229.672 4.650,232.430 2.539,234.300 1.792 C 235.938 1.138,236.636 0.000,235.400 0.000 C 235.070 0.000,234.800 0.243,234.800 0.539 M248.000 0.571 C 248.000 0.885,248.998 1.598,250.218 2.157 C 258.833 6.101,262.133 16.105,258.412 27.000 C 257.511 29.640,256.425 32.880,256.000 34.200 C 255.575 35.520,254.217 39.480,252.983 43.000 C 251.748 46.520,250.496 50.241,250.200 51.269 C 249.904 52.297,249.469 53.497,249.234 53.936 C 248.999 54.375,248.539 55.694,248.211 56.867 C 247.883 58.040,246.993 60.797,246.235 62.994 C 245.476 65.191,244.930 67.063,245.022 67.155 C 245.266 67.399,246.400 64.554,246.400 63.697 C 246.400 63.297,246.743 62.296,247.163 61.473 C 247.583 60.650,248.150 59.036,248.424 57.888 C 248.697 56.740,249.144 55.440,249.416 55.000 C 249.688 54.560,250.134 53.210,250.407 52.000 C 250.681 50.790,251.069 49.592,251.270 49.338 C 251.470 49.084,251.975 47.734,252.391 46.338 C 252.807 44.942,253.705 42.270,254.387 40.400 C 255.068 38.530,255.966 35.920,256.382 34.600 C 257.742 30.286,258.438 28.233,259.265 26.098 C 262.909 16.680,258.298 4.433,250.020 1.547 C 249.349 1.313,248.800 0.869,248.800 0.561 C 248.800 0.252,248.620 0.000,248.400 0.000 C 248.180 0.000,248.000 0.257,248.000 0.571 M243.686 70.321 C 243.196 71.795,242.450 74.080,242.028 75.400 C 241.205 77.976,239.486 82.913,238.976 84.166 C 238.758 84.701,238.803 84.845,239.127 84.645 C 239.381 84.488,239.871 83.333,240.214 82.080 C 240.558 80.826,241.098 79.327,241.413 78.749 C 241.729 78.171,242.194 76.733,242.447 75.553 C 242.701 74.373,243.143 73.046,243.432 72.604 C 243.948 71.812,244.946 68.013,244.702 67.768 C 244.633 67.699,244.175 68.848,243.686 70.321 M233.877 99.101 C 226.294 121.732,223.316 130.417,223.050 130.683 C 222.913 130.821,222.800 131.209,222.800 131.547 C 222.800 132.770,223.611 131.345,224.376 128.776 C 225.429 125.240,226.785 121.163,227.228 120.200 C 227.630 119.328,229.198 114.799,230.414 111.000 C 232.367 104.898,232.908 103.331,233.385 102.400 C 233.666 101.850,234.127 100.410,234.409 99.200 C 234.691 97.990,235.144 96.640,235.416 96.200 C 235.688 95.760,236.138 94.410,236.416 93.200 C 236.694 91.990,237.142 90.640,237.411 90.200 C 237.946 89.324,238.927 85.594,238.685 85.352 C 238.603 85.269,236.439 91.456,233.877 99.101 M222.046 134.097 C 221.780 135.034,221.392 136.160,221.182 136.600 C 220.972 137.040,220.007 139.830,219.036 142.800 C 218.066 145.770,217.139 148.560,216.977 149.000 C 216.757 149.597,216.801 149.691,217.149 149.372 C 217.405 149.137,217.967 147.787,218.397 146.372 C 219.816 141.701,220.866 138.614,221.380 137.600 C 221.964 136.446,222.910 132.777,222.682 132.549 C 222.597 132.464,222.311 133.161,222.046 134.097 M216.186 151.053 C 216.047 151.684,215.596 153.026,215.183 154.036 C 214.770 155.046,214.253 156.576,214.033 157.436 C 213.813 158.296,213.008 160.797,212.244 162.994 C 211.480 165.191,210.930 167.063,211.022 167.155 C 211.256 167.389,212.251 164.884,212.594 163.200 C 212.750 162.430,213.104 161.440,213.379 161.000 C 213.654 160.560,214.113 159.210,214.400 158.000 C 214.687 156.790,215.142 155.440,215.411 155.000 C 216.001 154.035,216.916 150.383,216.637 150.104 C 216.528 149.995,216.325 150.422,216.186 151.053 M209.896 169.699 C 208.776 173.404,207.956 175.755,207.131 177.632 C 206.689 178.640,206.388 179.900,206.463 180.432 L 206.600 181.400 238.200 181.600 C 262.568 181.754,270.075 181.917,271.000 182.311 C 287.652 189.396,288.714 209.427,272.836 216.951 L 270.200 218.200 232.161 218.400 C 201.809 218.560,193.996 218.705,193.497 219.119 C 193.154 219.404,192.107 222.014,191.171 224.919 C 190.235 227.824,189.319 230.371,189.135 230.580 C 188.678 231.099,188.710 232.103,189.174 231.816 C 189.379 231.689,189.839 230.554,190.196 229.293 C 190.553 228.032,191.079 226.460,191.366 225.800 C 191.653 225.140,192.129 223.700,192.423 222.600 C 192.717 221.500,193.327 220.200,193.779 219.712 L 194.600 218.824 232.600 218.712 L 270.600 218.600 273.372 217.231 C 287.626 210.195,288.167 191.028,274.330 183.296 C 270.716 181.276,269.470 181.206,236.900 181.203 L 206.800 181.200 206.800 180.049 C 206.800 179.416,207.060 178.682,207.378 178.418 C 207.696 178.154,208.167 176.925,208.424 175.685 C 208.681 174.446,209.131 173.065,209.424 172.616 C 209.971 171.776,210.943 168.009,210.680 167.746 C 210.598 167.665,210.246 168.544,209.896 169.699 M187.993 234.289 C 187.709 235.340,187.341 236.380,187.176 236.600 C 187.011 236.820,186.574 238.080,186.206 239.400 C 185.838 240.720,185.301 242.340,185.013 243.000 C 184.724 243.660,184.187 245.190,183.820 246.400 C 183.453 247.610,183.050 248.850,182.924 249.156 C 182.789 249.485,182.870 249.604,183.122 249.448 C 183.356 249.304,183.834 248.154,184.184 246.893 C 184.534 245.632,185.062 244.150,185.358 243.600 C 185.654 243.050,186.127 241.610,186.409 240.400 C 186.691 239.190,187.142 237.840,187.411 237.400 C 187.961 236.501,188.924 232.791,188.673 232.540 C 188.584 232.450,188.278 233.237,187.993 234.289 M182.195 251.053 C 182.061 251.684,181.535 253.370,181.027 254.800 C 179.690 258.562,179.347 259.569,177.205 266.000 C 176.142 269.190,175.140 272.160,174.977 272.600 C 174.746 273.226,174.791 273.300,175.181 272.940 C 175.456 272.686,176.013 271.336,176.419 269.940 C 177.553 266.035,178.819 262.306,179.385 261.200 C 179.666 260.650,180.127 259.210,180.409 258.000 C 180.691 256.790,181.142 255.440,181.411 255.000 C 182.001 254.035,182.916 250.383,182.637 250.104 C 182.528 249.995,182.329 250.422,182.195 251.053 M173.896 275.700 C 173.260 277.804,171.561 282.729,170.976 284.166 C 170.758 284.701,170.803 284.845,171.127 284.645 C 171.381 284.488,171.878 283.333,172.231 282.080 C 172.584 280.826,173.199 279.080,173.596 278.200 C 174.282 276.683,175.011 273.600,174.684 273.600 C 174.600 273.600,174.246 274.545,173.896 275.700 M169.862 287.444 C 169.476 288.740,169.056 290.050,168.929 290.356 C 168.785 290.699,168.867 290.806,169.143 290.635 C 169.664 290.313,170.932 286.195,170.712 285.536 C 170.630 285.289,170.247 286.148,169.862 287.444 M164.052 304.703 C 161.584 312.127,159.395 318.560,159.188 319.000 C 158.981 319.440,157.636 323.400,156.200 327.800 C 154.763 332.200,153.436 336.072,153.250 336.405 C 153.064 336.737,152.610 338.087,152.241 339.405 C 151.871 340.722,151.396 342.160,151.185 342.600 C 150.974 343.040,150.007 345.830,149.036 348.800 C 148.066 351.770,147.139 354.560,146.977 355.000 C 146.757 355.597,146.801 355.691,147.149 355.372 C 147.405 355.137,147.967 353.787,148.397 352.372 C 149.827 347.666,150.867 344.611,151.385 343.600 C 151.666 343.050,152.123 341.610,152.401 340.400 C 152.678 339.190,153.067 337.994,153.266 337.743 C 153.464 337.491,153.968 336.141,154.385 334.743 C 155.487 331.047,156.794 327.177,157.407 325.800 C 157.700 325.140,158.163 323.700,158.436 322.600 C 158.708 321.500,159.158 320.240,159.435 319.800 C 159.712 319.360,160.216 318.010,160.555 316.800 C 161.366 313.901,162.765 309.699,163.418 308.200 C 163.705 307.540,164.163 306.100,164.436 305.000 C 164.708 303.900,165.152 302.640,165.421 302.200 C 165.690 301.760,166.138 300.410,166.416 299.200 C 166.694 297.990,167.142 296.640,167.411 296.200 C 167.943 295.329,168.928 291.595,168.688 291.355 C 168.607 291.273,166.521 297.280,164.052 304.703 M146.186 357.053 C 146.047 357.684,145.596 359.026,145.183 360.036 C 144.770 361.046,144.253 362.576,144.033 363.436 C 143.813 364.296,143.008 366.797,142.244 368.994 C 141.480 371.191,140.930 373.063,141.022 373.155 C 141.256 373.389,142.251 370.884,142.594 369.200 C 142.750 368.430,143.104 367.440,143.379 367.000 C 143.654 366.560,144.113 365.210,144.400 364.000 C 144.687 362.790,145.142 361.440,145.411 361.000 C 146.001 360.035,146.916 356.383,146.637 356.104 C 146.528 355.995,146.325 356.422,146.186 357.053 M139.686 376.321 C 139.196 377.795,138.450 380.080,138.029 381.400 C 134.776 391.587,131.649 395.986,126.078 398.216 C 124.590 398.811,123.739 400.000,124.800 400.000 C 125.020 400.000,125.200 399.759,125.200 399.464 C 125.200 399.169,125.939 398.684,126.843 398.386 C 127.746 398.088,128.575 397.609,128.685 397.322 C 128.795 397.035,129.110 396.800,129.384 396.800 C 130.869 396.800,135.996 389.710,136.610 386.806 C 136.772 386.039,137.144 385.047,137.436 384.601 C 137.729 384.155,138.179 382.804,138.438 381.599 C 138.696 380.394,139.143 379.046,139.432 378.604 C 139.948 377.812,140.946 374.013,140.702 373.768 C 140.633 373.699,140.175 374.848,139.686 376.321 " stroke="none" fill="#fca2a2" fill-rule="evenodd"></path><path id="path3" d="M236.000 0.557 C 236.000 0.863,235.235 1.419,234.300 1.792 C 232.430 2.539,229.672 4.650,227.804 6.763 C 225.606 9.251,224.848 10.960,222.020 19.800 C 221.598 21.120,220.242 25.080,219.006 28.600 C 217.771 32.120,216.506 35.810,216.195 36.800 C 215.884 37.790,214.984 40.400,214.195 42.600 C 213.406 44.800,212.505 47.500,212.193 48.600 C 211.881 49.700,211.365 51.230,211.047 52.000 C 210.729 52.770,210.210 54.210,209.893 55.200 C 208.037 61.006,203.534 74.293,203.249 74.805 C 203.064 75.137,202.610 76.487,202.241 77.805 C 201.871 79.122,201.401 80.560,201.196 81.000 C 200.991 81.440,199.562 85.580,198.020 90.200 C 196.479 94.820,193.767 102.830,191.994 108.000 C 190.221 113.170,188.429 118.480,188.012 119.800 C 187.595 121.120,185.883 126.160,184.208 131.000 C 179.453 144.742,176.820 152.441,176.207 154.400 C 175.070 158.029,167.370 180.612,167.138 181.000 C 167.006 181.220,166.599 182.480,166.234 183.800 C 165.868 185.120,165.398 186.560,165.189 187.000 C 164.823 187.771,161.361 197.909,160.203 201.600 C 159.893 202.590,158.543 206.550,157.205 210.400 C 155.867 214.250,154.430 218.480,154.013 219.800 C 153.595 221.120,151.882 226.160,150.205 231.000 C 146.765 240.928,143.537 250.422,142.587 253.400 C 142.236 254.500,141.620 256.300,141.217 257.400 C 140.815 258.500,140.223 260.210,139.902 261.200 C 137.550 268.449,133.526 280.308,133.249 280.805 C 133.064 281.137,132.610 282.487,132.241 283.805 C 131.871 285.122,131.403 286.560,131.199 287.000 C 130.996 287.440,129.621 291.400,128.145 295.800 C 126.668 300.200,123.955 308.210,122.115 313.600 C 120.275 318.990,118.429 324.480,118.012 325.800 C 117.595 327.120,115.883 332.160,114.208 337.000 C 109.459 350.725,106.821 358.440,106.206 360.400 C 105.896 361.390,104.470 365.620,103.037 369.800 C 99.389 380.441,99.217 383.791,102.026 389.589 C 103.772 393.194,108.148 397.393,111.212 398.404 C 112.086 398.692,112.800 399.169,112.800 399.464 C 112.800 399.769,113.231 400.000,113.800 400.000 C 114.360 400.000,114.800 399.768,114.800 399.474 C 114.800 398.941,112.406 397.600,111.455 397.600 C 110.110 397.600,106.190 394.390,103.907 391.419 C 101.296 388.020,100.043 380.335,101.534 376.859 C 101.972 375.837,102.459 374.280,102.616 373.400 C 102.773 372.520,103.126 371.530,103.400 371.200 C 103.674 370.870,104.114 369.610,104.377 368.400 C 104.640 367.190,105.187 365.570,105.594 364.800 C 106.000 364.030,106.465 362.680,106.627 361.800 C 106.789 360.920,107.243 359.570,107.636 358.800 C 108.028 358.030,108.477 356.690,108.633 355.823 C 108.790 354.955,109.234 353.695,109.621 353.023 C 110.008 352.350,110.451 351.012,110.606 350.049 C 110.761 349.085,111.215 347.735,111.615 347.049 C 112.014 346.362,112.472 345.080,112.631 344.200 C 112.790 343.320,113.152 342.240,113.434 341.800 C 113.717 341.360,114.160 340.100,114.419 339.000 C 114.678 337.900,115.218 336.280,115.619 335.400 C 116.020 334.520,116.476 333.090,116.633 332.223 C 116.790 331.355,117.232 330.095,117.615 329.423 C 117.998 328.750,118.435 327.480,118.585 326.600 C 118.736 325.720,119.109 324.612,119.414 324.137 C 119.720 323.663,120.177 322.403,120.430 321.337 C 120.683 320.272,121.218 318.680,121.619 317.800 C 122.020 316.920,122.476 315.490,122.633 314.623 C 122.790 313.755,123.234 312.495,123.621 311.823 C 124.008 311.150,124.451 309.812,124.606 308.849 C 124.761 307.885,125.211 306.535,125.606 305.849 C 126.001 305.162,126.453 303.800,126.610 302.823 C 126.767 301.846,127.132 300.811,127.420 300.523 C 127.708 300.235,128.144 299.032,128.390 297.849 C 128.636 296.666,129.174 295.035,129.587 294.225 C 130.000 293.416,130.461 291.999,130.612 291.077 C 130.763 290.154,131.118 289.130,131.401 288.800 C 131.683 288.470,132.143 287.120,132.422 285.800 C 132.701 284.480,133.164 283.123,133.450 282.785 C 133.736 282.447,134.233 281.042,134.555 279.663 C 134.876 278.283,135.327 276.928,135.557 276.652 C 135.787 276.375,136.237 275.025,136.557 273.652 C 136.877 272.278,137.320 270.938,137.540 270.672 C 137.761 270.407,138.149 269.292,138.403 268.195 C 138.657 267.098,139.195 265.570,139.598 264.800 C 140.002 264.030,140.457 262.680,140.611 261.800 C 140.764 260.920,141.141 259.800,141.447 259.311 C 141.753 258.822,142.260 257.327,142.572 255.988 C 142.884 254.650,143.320 253.338,143.540 253.072 C 143.761 252.807,144.149 251.692,144.403 250.595 C 144.657 249.498,145.191 247.970,145.590 247.200 C 145.988 246.430,146.444 245.012,146.601 244.049 C 146.759 243.085,147.215 241.735,147.615 241.049 C 148.014 240.362,148.472 239.080,148.631 238.200 C 148.790 237.320,149.152 236.240,149.434 235.800 C 149.717 235.360,150.160 234.100,150.419 233.000 C 150.678 231.900,151.218 230.280,151.619 229.400 C 152.020 228.520,152.476 227.090,152.633 226.223 C 152.790 225.355,153.238 224.095,153.630 223.423 C 154.021 222.750,154.472 221.480,154.631 220.600 C 154.790 219.720,155.152 218.640,155.434 218.200 C 155.717 217.760,156.154 216.500,156.406 215.400 C 156.658 214.300,157.191 212.770,157.590 212.000 C 157.988 211.230,158.444 209.812,158.601 208.849 C 158.759 207.885,159.211 206.535,159.606 205.849 C 160.001 205.162,160.451 203.790,160.606 202.800 C 160.760 201.810,161.137 200.716,161.443 200.369 C 161.749 200.022,162.213 198.672,162.474 197.369 C 162.734 196.066,163.165 194.782,163.431 194.515 C 163.696 194.248,164.131 193.078,164.397 191.915 C 164.663 190.752,165.211 189.080,165.614 188.200 C 166.018 187.320,166.473 185.880,166.625 185.000 C 166.777 184.120,167.126 183.130,167.401 182.800 C 167.677 182.470,168.186 181.058,168.534 179.662 C 168.881 178.265,169.348 176.904,169.570 176.636 C 169.793 176.368,170.230 175.080,170.542 173.774 C 170.855 172.468,171.389 170.876,171.731 170.236 C 172.072 169.596,172.475 168.340,172.626 167.445 C 172.777 166.550,173.137 165.454,173.425 165.009 C 173.712 164.564,174.162 163.300,174.424 162.200 C 174.686 161.100,175.148 159.800,175.452 159.311 C 175.756 158.822,176.260 157.327,176.572 155.988 C 176.884 154.650,177.320 153.338,177.540 153.072 C 177.761 152.807,178.149 151.692,178.403 150.595 C 178.657 149.498,179.191 147.970,179.590 147.200 C 179.988 146.430,180.444 145.012,180.601 144.049 C 180.759 143.085,181.215 141.735,181.615 141.049 C 182.014 140.362,182.472 139.080,182.631 138.200 C 182.790 137.320,183.152 136.240,183.434 135.800 C 183.717 135.360,184.160 134.100,184.419 133.000 C 184.678 131.900,185.218 130.280,185.619 129.400 C 186.020 128.520,186.476 127.090,186.633 126.223 C 186.790 125.355,187.238 124.095,187.630 123.423 C 188.021 122.750,188.472 121.480,188.631 120.600 C 188.790 119.720,189.152 118.640,189.434 118.200 C 189.717 117.760,190.160 116.500,190.419 115.400 C 190.678 114.300,191.218 112.680,191.619 111.800 C 192.020 110.920,192.476 109.490,192.633 108.623 C 192.790 107.755,193.234 106.495,193.621 105.823 C 194.008 105.150,194.451 103.790,194.606 102.800 C 194.760 101.810,195.137 100.716,195.443 100.369 C 195.749 100.022,196.213 98.672,196.474 97.369 C 196.734 96.066,197.172 94.775,197.446 94.500 C 197.719 94.225,198.144 93.032,198.390 91.849 C 198.636 90.666,199.174 89.035,199.587 88.225 C 200.000 87.416,200.461 85.999,200.612 85.077 C 200.763 84.154,201.118 83.130,201.401 82.800 C 201.683 82.470,202.143 81.120,202.422 79.800 C 202.701 78.480,203.164 77.123,203.450 76.785 C 203.736 76.447,204.226 75.097,204.540 73.785 C 204.854 72.473,205.389 70.876,205.731 70.236 C 206.072 69.596,206.472 68.336,206.619 67.436 C 206.767 66.536,207.115 65.530,207.393 65.200 C 207.671 64.870,208.114 63.610,208.377 62.400 C 208.640 61.190,209.187 59.570,209.594 58.800 C 210.000 58.030,210.457 56.680,210.611 55.800 C 210.764 54.920,211.141 53.800,211.447 53.311 C 211.753 52.822,212.260 51.327,212.572 49.988 C 212.884 48.650,213.320 47.338,213.540 47.072 C 213.761 46.807,214.149 45.692,214.403 44.595 C 214.657 43.498,215.195 41.970,215.598 41.200 C 216.002 40.430,216.461 39.080,216.620 38.200 C 216.778 37.320,217.229 35.962,217.621 35.181 C 218.013 34.401,218.465 33.051,218.627 32.181 C 218.789 31.312,219.152 30.240,219.434 29.800 C 219.717 29.360,220.154 28.100,220.406 27.000 C 220.658 25.900,221.195 24.370,221.598 23.600 C 222.002 22.830,222.457 21.480,222.611 20.600 C 222.764 19.720,223.133 18.612,223.430 18.137 C 223.727 17.663,224.180 16.403,224.436 15.337 C 225.444 11.155,229.800 4.387,231.477 4.397 C 231.740 4.399,232.190 4.069,232.477 3.665 C 232.765 3.260,233.540 2.796,234.200 2.634 C 237.381 1.850,239.348 0.000,237.000 0.000 C 236.412 0.000,236.000 0.230,236.000 0.557 M245.600 0.551 C 245.600 1.115,249.037 2.800,250.187 2.800 C 250.538 2.800,250.926 3.063,251.050 3.385 C 251.173 3.706,251.584 4.068,251.962 4.188 C 252.773 4.445,255.600 6.964,255.600 7.428 C 255.600 7.604,255.927 8.120,256.328 8.574 C 258.799 11.378,260.540 21.291,258.909 23.273 C 258.671 23.563,258.180 24.880,257.818 26.200 C 257.456 27.520,256.923 29.050,256.632 29.600 C 256.341 30.150,255.884 31.540,255.615 32.688 C 255.346 33.836,254.783 35.450,254.363 36.273 C 253.943 37.096,253.600 38.143,253.600 38.600 C 253.600 39.057,253.257 40.104,252.837 40.927 C 252.417 41.750,251.850 43.364,251.576 44.512 C 251.303 45.660,250.856 46.960,250.584 47.400 C 250.312 47.840,249.862 49.190,249.584 50.400 C 249.306 51.610,248.843 52.962,248.555 53.405 C 248.268 53.848,247.824 55.198,247.569 56.405 C 247.315 57.612,246.924 58.827,246.701 59.104 C 246.478 59.381,245.969 60.731,245.570 62.104 C 244.442 65.979,243.178 69.701,242.615 70.800 C 242.334 71.350,241.877 72.790,241.599 74.000 C 241.322 75.210,240.915 76.427,240.696 76.704 C 240.476 76.981,239.972 78.331,239.576 79.704 C 239.180 81.077,238.291 83.730,237.600 85.600 C 236.909 87.470,236.011 90.080,235.605 91.400 C 234.664 94.459,233.742 97.146,232.547 100.308 C 232.026 101.687,231.600 103.134,231.600 103.523 C 231.600 103.912,231.257 104.904,230.837 105.727 C 230.417 106.550,229.850 108.164,229.576 109.312 C 229.303 110.460,228.856 111.760,228.584 112.200 C 228.312 112.640,227.866 113.990,227.593 115.200 C 227.319 116.410,226.915 117.627,226.696 117.904 C 226.476 118.181,225.969 119.531,225.570 120.904 C 224.442 124.779,223.178 128.501,222.615 129.600 C 222.334 130.150,221.884 131.540,221.615 132.688 C 221.346 133.836,220.783 135.450,220.363 136.273 C 219.943 137.096,219.600 138.097,219.600 138.497 C 219.600 138.897,219.150 140.293,218.600 141.600 C 218.050 142.907,217.600 144.303,217.600 144.703 C 217.600 145.103,217.257 146.104,216.837 146.927 C 216.417 147.750,215.850 149.364,215.576 150.512 C 215.303 151.660,214.843 152.962,214.555 153.405 C 214.268 153.848,213.833 155.138,213.590 156.271 C 213.347 157.405,212.800 159.016,212.374 159.851 C 211.948 160.686,211.600 161.743,211.600 162.200 C 211.600 162.657,211.257 163.704,210.837 164.527 C 210.417 165.350,209.850 166.964,209.576 168.112 C 209.303 169.260,208.856 170.560,208.584 171.000 C 208.312 171.440,207.873 172.740,207.608 173.888 C 207.343 175.036,206.783 176.650,206.363 177.473 C 205.482 179.200,205.367 181.309,206.119 181.933 C 206.478 182.231,216.535 182.400,238.678 182.482 C 267.591 182.588,270.789 182.663,271.458 183.251 C 271.866 183.609,272.887 184.144,273.726 184.441 C 275.046 184.907,278.378 187.819,280.448 190.314 C 283.824 194.386,283.808 205.535,280.420 209.727 C 278.494 212.109,274.922 215.228,273.652 215.635 C 272.853 215.892,271.866 216.393,271.458 216.751 C 270.788 217.337,266.986 217.419,232.172 217.600 C 196.152 217.787,193.582 217.846,192.928 218.500 C 192.268 219.161,191.123 222.090,189.762 226.600 C 189.430 227.700,188.921 229.050,188.631 229.600 C 188.341 230.150,187.884 231.540,187.615 232.688 C 187.346 233.836,186.783 235.450,186.363 236.273 C 185.943 237.096,185.600 238.097,185.600 238.497 C 185.600 238.897,185.150 240.293,184.600 241.600 C 184.050 242.907,183.600 244.303,183.600 244.703 C 183.600 245.103,183.257 246.104,182.837 246.927 C 182.417 247.750,181.850 249.364,181.576 250.512 C 181.303 251.660,180.856 252.960,180.584 253.400 C 180.312 253.840,179.873 255.140,179.608 256.288 C 179.343 257.436,178.783 259.050,178.363 259.873 C 177.943 260.696,177.600 261.697,177.600 262.097 C 177.600 262.498,177.307 263.495,176.949 264.313 C 176.591 265.131,175.971 266.880,175.571 268.200 C 174.281 272.457,173.142 275.780,172.693 276.600 C 172.452 277.040,171.942 278.480,171.561 279.800 C 171.179 281.120,170.556 283.100,170.177 284.200 C 169.138 287.217,167.794 291.077,166.696 294.200 C 164.800 299.594,164.328 301.020,163.619 303.496 C 163.226 304.869,162.722 306.219,162.499 306.496 C 162.276 306.773,161.885 307.988,161.631 309.195 C 161.376 310.402,160.932 311.752,160.645 312.195 C 160.357 312.638,159.887 313.990,159.600 315.200 C 159.313 316.410,158.843 317.762,158.555 318.205 C 158.268 318.648,157.821 319.996,157.562 321.201 C 157.304 322.406,156.860 323.754,156.577 324.196 C 156.293 324.638,155.784 325.990,155.445 327.200 C 154.497 330.590,153.182 334.493,152.615 335.600 C 152.334 336.150,151.884 337.540,151.615 338.688 C 151.346 339.836,150.783 341.450,150.363 342.273 C 149.943 343.096,149.600 344.097,149.600 344.497 C 149.600 344.897,149.150 346.293,148.600 347.600 C 148.050 348.907,147.600 350.303,147.600 350.703 C 147.600 351.103,147.257 352.104,146.837 352.927 C 146.417 353.750,145.850 355.364,145.576 356.512 C 145.303 357.660,144.843 358.962,144.555 359.405 C 144.268 359.848,143.833 361.138,143.590 362.271 C 143.347 363.405,142.800 365.016,142.374 365.851 C 141.948 366.686,141.600 367.743,141.600 368.200 C 141.600 368.657,141.257 369.704,140.837 370.527 C 140.417 371.350,139.850 372.964,139.576 374.112 C 139.303 375.260,138.856 376.560,138.584 377.000 C 138.312 377.440,137.873 378.740,137.608 379.888 C 137.343 381.036,136.783 382.650,136.363 383.473 C 135.943 384.296,135.600 385.302,135.600 385.710 C 135.600 389.191,129.937 395.904,125.600 397.565 C 122.471 398.764,122.000 399.017,122.000 399.498 C 122.000 399.789,122.504 400.000,123.200 400.000 C 123.958 400.000,124.400 399.795,124.400 399.443 C 124.400 399.137,125.155 398.585,126.078 398.216 C 131.650 395.986,134.841 391.491,138.018 381.400 C 138.433 380.080,139.866 375.850,141.201 372.000 C 142.537 368.150,143.810 364.296,144.031 363.436 C 144.252 362.576,144.758 361.046,145.156 360.036 C 146.012 357.861,146.235 357.215,148.823 349.400 C 149.915 346.100,150.981 343.040,151.189 342.600 C 151.398 342.160,151.871 340.722,152.241 339.405 C 152.610 338.087,153.064 336.737,153.250 336.405 C 153.436 336.072,154.763 332.200,156.200 327.800 C 157.636 323.400,158.983 319.440,159.193 319.000 C 159.402 318.560,161.278 313.070,163.361 306.800 C 165.444 300.530,168.517 291.440,170.190 286.600 C 171.863 281.760,174.561 273.840,176.187 269.000 C 180.053 257.491,179.968 257.737,180.894 255.279 C 181.334 254.113,181.841 252.583,182.022 251.879 C 182.435 250.272,184.690 243.670,185.191 242.600 C 185.398 242.160,185.770 240.990,186.019 240.000 C 186.268 239.010,186.710 237.660,187.001 237.000 C 187.292 236.340,187.828 234.810,188.193 233.600 C 188.558 232.390,189.019 231.040,189.216 230.600 C 189.414 230.160,190.309 227.550,191.205 224.800 C 192.101 222.050,193.103 219.530,193.431 219.200 C 193.951 218.678,198.973 218.574,232.114 218.400 L 270.200 218.200 272.836 216.951 C 288.714 209.427,287.652 189.396,271.000 182.311 C 270.075 181.917,262.568 181.754,238.200 181.600 L 206.600 181.400 206.476 180.327 C 206.408 179.736,206.661 178.656,207.038 177.927 C 207.416 177.197,207.958 175.790,208.244 174.800 C 208.529 173.810,209.858 169.850,211.196 166.000 C 212.534 162.150,213.810 158.296,214.031 157.436 C 214.252 156.576,214.758 155.046,215.156 154.036 C 216.012 151.861,216.235 151.215,218.823 143.400 C 219.915 140.100,220.975 137.040,221.176 136.600 C 221.378 136.160,221.839 134.810,222.200 133.600 C 222.561 132.390,223.014 131.040,223.206 130.600 C 223.589 129.719,227.122 119.310,233.185 101.200 C 235.358 94.710,238.069 86.790,239.209 83.600 C 240.350 80.410,241.618 76.720,242.028 75.400 C 242.438 74.080,243.862 69.850,245.192 66.000 C 246.522 62.150,247.880 58.040,248.209 56.867 C 248.538 55.694,248.999 54.375,249.234 53.936 C 249.469 53.497,249.904 52.297,250.200 51.269 C 250.496 50.241,251.748 46.520,252.983 43.000 C 254.217 39.480,255.575 35.520,256.000 34.200 C 256.425 32.880,257.511 29.640,258.412 27.000 C 262.133 16.105,258.833 6.101,250.218 2.157 C 248.998 1.598,248.000 0.885,248.000 0.571 C 248.000 0.203,247.573 0.000,246.800 0.000 C 246.048 0.000,245.600 0.205,245.600 0.551 " stroke="none" fill="#fc7c7c" fill-rule="evenodd"></path><path id="path4" d="M233.600 0.569 C 233.600 0.882,232.983 1.342,232.229 1.590 C 230.578 2.135,225.824 6.598,225.402 8.000 C 225.236 8.550,224.789 9.298,224.408 9.662 C 224.026 10.027,223.593 11.086,223.444 12.016 C 223.295 12.947,222.836 14.137,222.423 14.661 C 222.011 15.186,221.544 16.557,221.386 17.708 C 221.228 18.858,220.782 20.203,220.395 20.695 C 220.009 21.188,219.569 22.414,219.418 23.420 C 219.267 24.427,218.813 25.824,218.410 26.525 C 218.006 27.226,217.548 28.595,217.392 29.567 C 217.235 30.538,216.773 31.882,216.365 32.554 C 215.957 33.225,215.502 34.590,215.355 35.587 C 215.208 36.584,214.774 37.803,214.390 38.295 C 214.006 38.788,213.565 40.048,213.411 41.095 C 213.256 42.143,212.875 43.284,212.565 43.631 C 212.255 43.978,211.794 45.328,211.542 46.631 C 211.290 47.934,210.840 49.284,210.542 49.631 C 210.244 49.978,209.789 51.328,209.531 52.631 C 209.272 53.934,208.748 55.450,208.366 56.000 C 207.984 56.550,207.550 57.883,207.402 58.962 C 207.254 60.041,206.806 61.391,206.406 61.962 C 206.007 62.533,205.563 63.805,205.421 64.790 C 205.278 65.774,204.900 66.869,204.580 67.222 C 204.260 67.576,203.802 68.931,203.564 70.233 C 203.325 71.535,202.876 72.884,202.565 73.231 C 202.255 73.578,201.789 74.928,201.531 76.231 C 201.272 77.534,200.748 79.050,200.366 79.600 C 199.984 80.150,199.550 81.483,199.402 82.562 C 199.254 83.641,198.804 84.991,198.402 85.562 C 198.000 86.133,197.550 87.483,197.402 88.562 C 197.254 89.641,196.806 90.991,196.406 91.562 C 196.007 92.133,195.568 93.378,195.431 94.329 C 195.293 95.280,194.842 96.540,194.427 97.129 C 194.011 97.718,193.550 99.083,193.402 100.162 C 193.254 101.241,192.804 102.591,192.402 103.162 C 192.000 103.733,191.549 105.093,191.399 106.184 C 191.249 107.275,190.803 108.578,190.409 109.079 C 190.015 109.581,189.565 110.841,189.409 111.879 C 189.253 112.918,188.799 114.184,188.399 114.692 C 188.000 115.200,187.544 116.557,187.386 117.708 C 187.228 118.858,186.782 120.203,186.395 120.695 C 186.009 121.188,185.569 122.414,185.418 123.420 C 185.267 124.427,184.813 125.824,184.410 126.525 C 184.006 127.226,183.549 128.588,183.394 129.551 C 183.239 130.515,182.789 131.865,182.394 132.551 C 181.999 133.238,181.546 134.610,181.387 135.600 C 181.228 136.590,180.777 137.808,180.385 138.308 C 179.994 138.807,179.544 140.157,179.386 141.308 C 179.228 142.458,178.782 143.803,178.395 144.295 C 178.009 144.788,177.565 146.048,177.411 147.095 C 177.256 148.143,176.875 149.284,176.565 149.631 C 176.255 149.978,175.789 151.328,175.531 152.631 C 175.272 153.934,174.748 155.450,174.366 156.000 C 173.984 156.550,173.550 157.883,173.402 158.962 C 173.254 160.041,172.806 161.391,172.406 161.962 C 172.007 162.533,171.563 163.805,171.421 164.790 C 171.278 165.774,170.900 166.869,170.580 167.222 C 170.260 167.576,169.802 168.931,169.564 170.233 C 169.325 171.535,168.875 172.885,168.564 173.233 C 168.252 173.581,167.804 174.912,167.568 176.191 C 167.331 177.470,166.808 178.985,166.405 179.558 C 166.002 180.131,165.550 181.483,165.402 182.562 C 165.254 183.641,164.804 184.991,164.402 185.562 C 164.000 186.133,163.550 187.483,163.402 188.562 C 163.254 189.641,162.806 190.991,162.406 191.562 C 162.007 192.133,161.568 193.378,161.431 194.329 C 161.293 195.280,160.842 196.540,160.427 197.129 C 160.011 197.718,159.550 199.083,159.402 200.162 C 159.254 201.241,158.804 202.591,158.402 203.162 C 158.000 203.733,157.550 205.083,157.402 206.162 C 157.254 207.241,156.806 208.591,156.406 209.162 C 156.007 209.733,155.566 210.989,155.426 211.954 C 155.287 212.918,154.836 214.137,154.423 214.661 C 154.011 215.186,153.544 216.557,153.386 217.708 C 153.228 218.858,152.782 220.203,152.395 220.695 C 152.009 221.188,151.569 222.414,151.418 223.420 C 151.267 224.427,150.813 225.824,150.410 226.525 C 150.006 227.226,149.549 228.588,149.394 229.551 C 149.239 230.515,148.789 231.865,148.394 232.551 C 147.999 233.238,147.546 234.610,147.387 235.600 C 147.228 236.590,146.777 237.808,146.385 238.308 C 145.994 238.807,145.544 240.157,145.386 241.308 C 145.228 242.458,144.782 243.803,144.395 244.295 C 144.009 244.788,143.565 246.048,143.411 247.095 C 143.256 248.143,142.875 249.284,142.565 249.631 C 142.255 249.978,141.794 251.328,141.542 252.631 C 141.290 253.934,140.840 255.284,140.542 255.631 C 140.244 255.978,139.789 257.328,139.531 258.631 C 139.272 259.934,138.748 261.450,138.366 262.000 C 137.984 262.550,137.550 263.883,137.402 264.962 C 137.254 266.041,136.806 267.391,136.406 267.962 C 136.007 268.533,135.563 269.805,135.421 270.790 C 135.278 271.774,134.900 272.869,134.580 273.222 C 134.260 273.576,133.802 274.931,133.564 276.233 C 133.325 277.535,132.876 278.884,132.565 279.231 C 132.255 279.578,131.789 280.928,131.531 282.231 C 131.272 283.534,130.748 285.050,130.366 285.600 C 129.984 286.150,129.550 287.483,129.402 288.562 C 129.254 289.641,128.806 290.991,128.406 291.562 C 128.007 292.133,127.563 293.405,127.421 294.390 C 127.278 295.374,126.900 296.469,126.580 296.822 C 126.260 297.176,125.804 298.512,125.568 299.791 C 125.331 301.070,124.808 302.585,124.405 303.158 C 124.002 303.731,123.550 305.083,123.402 306.162 C 123.254 307.241,122.804 308.591,122.402 309.162 C 122.000 309.733,121.549 311.093,121.399 312.184 C 121.249 313.275,120.803 314.578,120.409 315.079 C 120.015 315.581,119.565 316.841,119.409 317.879 C 119.253 318.918,118.799 320.184,118.399 320.692 C 118.000 321.200,117.544 322.557,117.386 323.708 C 117.228 324.858,116.782 326.203,116.395 326.695 C 116.009 327.188,115.569 328.414,115.418 329.420 C 115.267 330.427,114.813 331.824,114.410 332.525 C 114.006 333.226,113.549 334.588,113.394 335.551 C 113.239 336.515,112.789 337.865,112.394 338.551 C 111.999 339.238,111.546 340.610,111.387 341.600 C 111.228 342.590,110.777 343.808,110.385 344.308 C 109.994 344.807,109.544 346.157,109.386 347.308 C 109.228 348.458,108.782 349.803,108.395 350.295 C 108.009 350.788,107.565 352.048,107.411 353.095 C 107.256 354.143,106.875 355.284,106.565 355.631 C 106.255 355.978,105.789 357.328,105.531 358.631 C 105.272 359.934,104.748 361.450,104.366 362.000 C 103.984 362.550,103.550 363.883,103.402 364.962 C 103.254 366.041,102.806 367.391,102.406 367.962 C 102.007 368.533,101.563 369.805,101.421 370.790 C 101.278 371.774,100.892 372.877,100.562 373.242 C 98.928 375.048,98.763 386.672,100.342 388.807 C 100.794 389.419,101.285 390.400,101.433 390.988 C 101.580 391.575,102.038 392.267,102.450 392.524 C 102.863 392.782,103.200 393.150,103.200 393.343 C 103.200 393.727,106.165 396.800,106.535 396.800 C 106.661 396.800,107.214 397.250,107.764 397.800 C 108.314 398.350,109.132 398.800,109.582 398.800 C 110.042 398.800,110.400 399.062,110.400 399.400 C 110.400 399.730,110.670 400.000,111.000 400.000 C 111.330 400.000,111.600 399.730,111.600 399.400 C 111.600 399.070,111.350 398.800,111.045 398.800 C 110.356 398.800,106.549 396.212,105.200 394.827 C 98.773 388.228,98.059 379.766,102.986 368.600 C 103.277 367.940,103.646 366.770,103.806 366.000 C 103.966 365.230,104.329 364.145,104.613 363.589 C 104.896 363.033,105.411 361.593,105.755 360.389 C 106.546 357.624,108.515 351.930,108.864 351.396 C 109.009 351.174,109.430 349.824,109.800 348.396 C 110.169 346.968,110.629 345.610,110.821 345.377 C 111.013 345.144,111.432 343.950,111.751 342.722 C 112.071 341.495,112.596 339.975,112.918 339.345 C 113.240 338.715,113.624 337.570,113.771 336.800 C 113.918 336.030,114.375 334.590,114.787 333.600 C 115.551 331.764,116.272 329.673,117.615 325.400 C 118.766 321.738,120.043 317.995,120.824 316.000 C 121.493 314.287,122.555 311.143,123.794 307.200 C 124.592 304.659,125.990 300.625,127.075 297.732 C 127.584 296.374,128.000 294.984,128.000 294.642 C 128.000 294.301,128.348 293.252,128.772 292.311 C 129.530 290.633,130.099 289.010,131.619 284.200 C 133.337 278.765,136.419 269.756,136.767 269.153 C 136.973 268.797,137.345 267.717,137.594 266.753 C 137.843 265.789,138.385 264.100,138.798 263.000 C 139.554 260.986,140.218 259.015,141.627 254.600 C 142.901 250.609,144.584 245.825,144.864 245.396 C 145.009 245.174,145.430 243.824,145.800 242.396 C 146.169 240.968,146.629 239.610,146.821 239.377 C 147.013 239.144,147.432 237.950,147.751 236.722 C 148.071 235.495,148.596 233.975,148.918 233.345 C 149.240 232.715,149.624 231.570,149.771 230.800 C 149.918 230.030,150.375 228.590,150.787 227.600 C 151.542 225.788,152.222 223.820,153.621 219.400 C 154.039 218.080,155.024 215.200,155.810 213.000 C 156.596 210.800,157.494 208.190,157.805 207.200 C 158.929 203.631,160.121 200.154,161.052 197.732 C 161.573 196.374,162.000 194.984,162.000 194.642 C 162.000 194.301,162.348 193.252,162.772 192.311 C 163.534 190.623,164.135 188.909,165.616 184.200 C 167.103 179.468,172.452 163.776,172.979 162.600 C 173.274 161.940,173.646 160.770,173.806 160.000 C 173.966 159.230,174.329 158.145,174.613 157.589 C 174.896 157.033,175.411 155.593,175.755 154.389 C 176.546 151.624,178.515 145.930,178.864 145.396 C 179.009 145.174,179.430 143.824,179.800 142.396 C 180.169 140.968,180.629 139.610,180.821 139.377 C 181.013 139.144,181.432 137.950,181.751 136.722 C 182.071 135.495,182.596 133.975,182.918 133.345 C 183.240 132.715,183.624 131.570,183.771 130.800 C 183.918 130.030,184.375 128.590,184.787 127.600 C 185.551 125.764,186.272 123.673,187.615 119.400 C 188.766 115.738,190.043 111.995,190.824 110.000 C 191.493 108.287,192.555 105.143,193.794 101.200 C 194.923 97.605,196.127 94.166,196.802 92.600 C 197.182 91.720,197.615 90.370,197.765 89.600 C 197.915 88.830,198.375 87.390,198.787 86.400 C 199.550 84.568,200.265 82.493,201.616 78.200 C 203.126 73.399,206.425 63.784,206.778 63.153 C 206.978 62.797,207.345 61.717,207.594 60.753 C 207.843 59.789,208.385 58.100,208.798 57.000 C 209.569 54.945,210.292 52.795,211.622 48.600 C 212.869 44.665,214.406 40.255,214.828 39.400 C 215.046 38.960,215.479 37.700,215.791 36.600 C 216.499 34.110,217.894 29.973,218.828 27.600 C 219.569 25.717,220.347 23.430,221.618 19.400 C 224.934 8.883,228.055 4.120,233.131 1.831 C 234.759 1.097,235.400 0.000,234.200 0.000 C 233.870 0.000,233.600 0.256,233.600 0.569 M248.800 0.561 C 248.800 0.869,249.349 1.313,250.020 1.547 C 258.298 4.433,262.909 16.680,259.265 26.098 C 258.438 28.233,257.742 30.286,256.382 34.600 C 255.966 35.920,255.068 38.530,254.387 40.400 C 253.705 42.270,252.807 44.942,252.391 46.338 C 251.975 47.734,251.470 49.084,251.270 49.338 C 251.069 49.592,250.681 50.790,250.407 52.000 C 250.134 53.210,249.688 54.560,249.416 55.000 C 249.144 55.440,248.697 56.740,248.424 57.888 C 248.150 59.036,247.583 60.650,247.163 61.473 C 246.743 62.296,246.400 63.343,246.400 63.800 C 246.400 64.257,246.052 65.314,245.626 66.149 C 245.200 66.984,244.653 68.595,244.410 69.729 C 244.167 70.862,243.729 72.154,243.438 72.599 C 243.146 73.044,242.696 74.394,242.438 75.599 C 242.179 76.804,241.735 78.152,241.450 78.595 C 241.165 79.038,240.710 80.300,240.440 81.400 C 240.169 82.500,239.717 83.760,239.435 84.200 C 239.152 84.640,238.694 85.990,238.416 87.200 C 238.138 88.410,237.688 89.760,237.416 90.200 C 237.144 90.640,236.694 91.990,236.416 93.200 C 236.138 94.410,235.688 95.760,235.416 96.200 C 235.144 96.640,234.691 97.990,234.409 99.200 C 234.127 100.410,233.666 101.850,233.385 102.400 C 232.908 103.331,232.367 104.898,230.414 111.000 C 229.198 114.799,227.630 119.328,227.228 120.200 C 226.787 121.158,225.433 125.227,224.385 128.743 C 223.968 130.141,223.464 131.491,223.266 131.743 C 223.067 131.994,222.678 133.190,222.401 134.400 C 222.123 135.610,221.666 137.050,221.385 137.600 C 220.869 138.607,219.832 141.652,218.406 146.338 C 217.982 147.734,217.470 149.084,217.270 149.338 C 217.069 149.592,216.681 150.790,216.407 152.000 C 216.134 153.210,215.688 154.560,215.416 155.000 C 215.144 155.440,214.687 156.790,214.400 158.000 C 214.113 159.210,213.658 160.560,213.389 161.000 C 213.120 161.440,212.686 162.700,212.424 163.800 C 212.162 164.900,211.714 166.162,211.428 166.604 C 211.142 167.046,210.696 168.394,210.438 169.599 C 210.179 170.804,209.726 172.159,209.430 172.611 C 209.134 173.063,208.681 174.446,208.424 175.685 C 208.167 176.925,207.696 178.154,207.378 178.418 C 207.060 178.682,206.800 179.416,206.800 180.049 L 206.800 181.200 236.900 181.203 C 274.013 181.207,273.088 181.080,279.062 187.007 C 289.118 196.985,283.839 215.518,270.107 218.445 C 268.810 218.721,268.921 218.750,270.903 218.650 C 272.606 218.564,273.447 218.308,274.129 217.667 C 274.636 217.190,275.313 216.800,275.633 216.800 C 276.745 216.800,282.800 210.432,282.800 209.262 C 282.800 208.926,283.205 208.220,283.700 207.694 C 285.050 206.257,285.093 193.806,283.752 192.332 C 283.286 191.820,282.791 190.917,282.651 190.326 C 282.327 188.954,277.585 184.120,275.854 183.397 C 275.129 183.094,274.320 182.585,274.055 182.267 C 273.791 181.948,272.725 181.561,271.687 181.407 C 270.649 181.253,268.787 180.868,267.549 180.553 C 265.678 180.076,260.545 179.998,237.083 180.090 C 206.647 180.209,207.622 180.273,208.431 178.200 C 208.603 177.760,208.756 176.898,208.772 176.284 C 208.787 175.670,209.180 174.654,209.644 174.025 C 210.109 173.397,210.584 172.010,210.701 170.942 C 210.818 169.874,211.151 168.860,211.441 168.689 C 212.017 168.349,212.794 165.941,212.798 164.484 C 212.799 163.980,213.159 163.080,213.597 162.484 C 214.035 161.888,214.515 160.500,214.663 159.400 C 214.810 158.300,215.282 156.924,215.710 156.342 C 216.138 155.760,216.581 154.410,216.694 153.342 C 216.809 152.253,217.228 151.038,217.647 150.577 C 218.058 150.125,218.515 148.865,218.663 147.777 C 218.810 146.690,219.260 145.350,219.663 144.800 C 220.065 144.250,220.509 142.900,220.650 141.800 C 220.790 140.700,221.247 139.423,221.664 138.962 C 222.113 138.466,222.521 137.242,222.664 135.962 C 222.807 134.682,223.214 133.458,223.664 132.962 C 224.113 132.466,224.521 131.242,224.664 129.962 C 224.804 128.701,225.215 127.457,225.649 126.977 C 226.059 126.525,226.515 125.265,226.663 124.177 C 226.810 123.090,227.260 121.750,227.663 121.200 C 228.065 120.650,228.509 119.300,228.650 118.200 C 228.790 117.100,229.240 115.830,229.650 115.377 C 230.059 114.925,230.515 113.665,230.663 112.577 C 230.810 111.490,231.260 110.150,231.663 109.600 C 232.065 109.050,232.515 107.700,232.663 106.600 C 232.810 105.500,233.260 104.150,233.663 103.600 C 234.065 103.050,234.515 101.700,234.663 100.600 C 234.810 99.500,235.260 98.150,235.663 97.600 C 236.065 97.050,236.515 95.700,236.663 94.600 C 236.810 93.500,237.260 92.150,237.663 91.600 C 238.065 91.050,238.513 89.717,238.660 88.637 C 238.806 87.557,239.245 86.355,239.634 85.966 C 240.024 85.576,240.454 84.390,240.591 83.329 C 240.728 82.268,241.015 81.130,241.228 80.800 C 242.140 79.390,242.800 77.540,242.800 76.397 C 242.800 75.721,243.180 74.654,243.644 74.025 C 244.109 73.397,244.584 72.010,244.701 70.942 C 244.818 69.874,245.151 68.860,245.441 68.689 C 246.072 68.317,246.795 65.895,246.798 64.143 C 246.799 63.420,247.045 62.792,247.375 62.665 C 247.980 62.433,248.794 60.040,248.798 58.484 C 248.799 57.980,249.180 57.054,249.644 56.425 C 250.109 55.797,250.581 54.410,250.694 53.342 C 250.809 52.253,251.228 51.038,251.647 50.577 C 252.058 50.125,252.513 48.865,252.658 47.777 C 252.803 46.690,253.245 45.382,253.641 44.872 C 254.036 44.361,254.475 43.101,254.616 42.072 C 254.756 41.042,255.219 39.708,255.643 39.107 C 256.066 38.506,256.519 37.156,256.647 36.107 C 256.776 35.058,257.209 33.731,257.610 33.158 C 258.010 32.585,258.531 31.070,258.768 29.791 C 259.004 28.512,259.477 27.157,259.818 26.780 C 261.568 24.846,261.410 12.127,259.612 10.213 C 259.165 9.737,258.800 9.144,258.800 8.895 C 258.800 8.147,254.803 3.581,253.821 3.208 C 253.320 3.017,252.810 2.603,252.689 2.288 C 252.568 1.972,251.913 1.603,251.234 1.467 C 250.503 1.321,250.000 0.972,250.000 0.610 C 250.000 0.274,249.730 0.000,249.400 0.000 C 249.070 0.000,248.800 0.252,248.800 0.561 M193.749 219.715 C 193.311 220.218,192.629 221.793,192.234 223.215 C 191.838 224.637,191.381 225.980,191.219 226.200 C 191.057 226.420,190.692 227.500,190.408 228.600 C 190.124 229.700,189.674 230.960,189.407 231.400 C 189.140 231.840,188.694 233.190,188.416 234.400 C 188.138 235.610,187.688 236.960,187.416 237.400 C 187.144 237.840,186.694 239.190,186.416 240.400 C 186.138 241.610,185.692 242.960,185.425 243.400 C 185.158 243.840,184.704 245.100,184.416 246.200 C 184.128 247.300,183.674 248.560,183.407 249.000 C 183.140 249.440,182.694 250.790,182.416 252.000 C 182.138 253.210,181.688 254.560,181.416 255.000 C 181.144 255.440,180.691 256.790,180.409 258.000 C 180.127 259.210,179.666 260.650,179.385 261.200 C 178.822 262.299,177.558 266.021,176.430 269.896 C 176.031 271.269,175.522 272.619,175.299 272.896 C 175.076 273.173,174.690 274.367,174.440 275.549 C 174.191 276.731,173.729 278.171,173.413 278.749 C 173.098 279.327,172.558 280.826,172.214 282.080 C 171.871 283.333,171.412 284.469,171.195 284.603 C 170.686 284.918,170.679 286.400,171.186 286.400 C 171.792 286.400,172.388 285.004,172.671 282.916 C 172.814 281.862,173.282 280.524,173.710 279.942 C 174.138 279.360,174.584 278.010,174.701 276.942 C 174.818 275.874,175.151 274.860,175.441 274.689 C 176.072 274.317,176.795 271.895,176.798 270.143 C 176.799 269.420,177.045 268.792,177.375 268.665 C 177.980 268.433,178.794 266.040,178.798 264.484 C 178.799 263.980,179.180 263.054,179.644 262.425 C 180.109 261.797,180.581 260.410,180.694 259.342 C 180.811 258.237,181.228 257.039,181.661 256.562 C 182.114 256.064,182.521 254.848,182.664 253.562 C 182.804 252.301,183.215 251.057,183.649 250.577 C 184.059 250.125,184.509 248.865,184.650 247.777 C 184.790 246.690,185.247 245.423,185.664 244.962 C 186.113 244.466,186.521 243.242,186.664 241.962 C 186.807 240.682,187.214 239.458,187.664 238.962 C 188.113 238.466,188.521 237.242,188.664 235.962 C 188.804 234.701,189.215 233.457,189.649 232.977 C 190.059 232.525,190.515 231.265,190.663 230.177 C 190.810 229.090,191.265 227.746,191.674 227.191 C 192.082 226.636,192.523 225.279,192.654 224.177 C 192.816 222.805,193.226 221.797,193.951 220.986 L 195.010 219.800 231.005 219.800 C 258.618 219.800,267.186 219.686,267.800 219.312 C 268.433 218.926,260.877 218.822,231.572 218.812 L 194.544 218.800 193.749 219.715 M170.432 287.415 C 170.414 287.864,170.057 288.904,169.637 289.727 C 169.217 290.550,168.657 292.164,168.392 293.312 C 168.127 294.460,167.688 295.760,167.416 296.200 C 167.144 296.640,166.694 297.990,166.416 299.200 C 166.138 300.410,165.690 301.760,165.421 302.200 C 165.152 302.640,164.708 303.900,164.436 305.000 C 164.163 306.100,163.705 307.540,163.418 308.200 C 162.765 309.699,161.366 313.901,160.555 316.800 C 160.216 318.010,159.712 319.360,159.435 319.800 C 159.158 320.240,158.708 321.500,158.436 322.600 C 158.163 323.700,157.700 325.140,157.407 325.800 C 156.794 327.177,155.487 331.047,154.385 334.743 C 153.968 336.141,153.464 337.491,153.266 337.743 C 153.067 337.994,152.678 339.190,152.401 340.400 C 152.123 341.610,151.666 343.050,151.385 343.600 C 150.869 344.607,149.832 347.652,148.406 352.338 C 147.982 353.734,147.470 355.084,147.270 355.338 C 147.069 355.592,146.681 356.790,146.407 358.000 C 146.134 359.210,145.688 360.560,145.416 361.000 C 145.144 361.440,144.687 362.790,144.400 364.000 C 144.113 365.210,143.658 366.560,143.389 367.000 C 143.120 367.440,142.686 368.700,142.424 369.800 C 142.162 370.900,141.714 372.162,141.428 372.604 C 141.142 373.046,140.696 374.394,140.438 375.599 C 140.179 376.804,139.729 378.154,139.438 378.599 C 139.146 379.044,138.696 380.394,138.438 381.599 C 138.179 382.804,137.729 384.155,137.436 384.601 C 137.144 385.047,136.772 386.039,136.610 386.806 C 135.996 389.710,130.869 396.800,129.384 396.800 C 129.110 396.800,128.795 397.035,128.685 397.322 C 128.575 397.609,127.746 398.088,126.843 398.386 C 125.264 398.907,124.558 400.000,125.800 400.000 C 126.130 400.000,126.400 399.753,126.400 399.450 C 126.400 399.148,126.914 398.797,127.542 398.672 C 128.170 398.546,129.183 398.029,129.794 397.522 C 132.520 395.259,134.800 392.775,134.800 392.068 C 134.800 391.644,135.166 391.051,135.613 390.749 C 136.098 390.422,136.528 389.553,136.679 388.600 C 136.818 387.720,137.282 386.524,137.710 385.942 C 138.139 385.360,138.587 384.010,138.707 382.942 C 138.827 381.874,139.277 380.524,139.707 379.942 C 140.137 379.360,140.584 378.010,140.701 376.942 C 140.818 375.874,141.151 374.860,141.441 374.689 C 142.017 374.349,142.794 371.941,142.798 370.484 C 142.799 369.980,143.159 369.080,143.597 368.484 C 144.035 367.888,144.515 366.500,144.663 365.400 C 144.810 364.300,145.282 362.924,145.710 362.342 C 146.138 361.760,146.581 360.410,146.694 359.342 C 146.809 358.253,147.228 357.038,147.647 356.577 C 148.058 356.125,148.515 354.865,148.663 353.777 C 148.810 352.690,149.260 351.350,149.663 350.800 C 150.065 350.250,150.509 348.900,150.650 347.800 C 150.790 346.700,151.247 345.423,151.664 344.962 C 152.113 344.466,152.521 343.242,152.664 341.962 C 152.807 340.682,153.214 339.458,153.664 338.962 C 154.113 338.466,154.521 337.242,154.664 335.962 C 154.804 334.701,155.215 333.457,155.649 332.977 C 156.059 332.525,156.515 331.265,156.663 330.177 C 156.810 329.090,157.260 327.750,157.663 327.200 C 158.065 326.650,158.515 325.300,158.663 324.200 C 158.810 323.100,159.275 321.733,159.695 321.161 C 160.116 320.590,160.565 319.330,160.694 318.361 C 160.823 317.393,161.258 316.150,161.661 315.600 C 162.064 315.050,162.515 313.700,162.663 312.600 C 162.810 311.500,163.260 310.150,163.663 309.600 C 164.065 309.050,164.515 307.700,164.663 306.600 C 164.810 305.500,165.260 304.150,165.663 303.600 C 166.065 303.050,166.515 301.700,166.663 300.600 C 166.810 299.500,167.260 298.150,167.663 297.600 C 168.065 297.050,168.513 295.717,168.660 294.637 C 168.806 293.557,169.245 292.355,169.634 291.966 C 170.364 291.236,171.046 288.057,170.673 287.125 C 170.552 286.821,170.450 286.944,170.432 287.415 " stroke="none" fill="#fcc4c4" fill-rule="evenodd"></path></g></svg>